<svg xmlns="http://www.w3.org/2000/svg" version="1.1" xmlns:xlink="http://www.w3.org/1999/xlink" xmlns:svgjs="http://svgjs.dev/svgjs" width="1440" height="560" preserveAspectRatio="none" viewBox="0 0 1440 560"><g mask="url(&quot;#SvgjsMask1062&quot;)" fill="none"><rect width="1440" height="560" x="0" y="0" fill="rgba(230, 235, 227, 1)"></rect><path d="M-83.4 354.29L-83.4 354.29" stroke="rgba(41, 66, 56, 1)" stroke-width="1.5"></path><path d="M-83.4 354.29L65.7 359.24" stroke="rgba(41, 66, 56, 1)" stroke-width="1.5"></path><path d="M-83.4 354.29L-90.59 511.84" stroke="rgba(41, 66, 56, 1)" stroke-width="1.5"></path><path d="M-83.4 354.29L76.42 556.75" stroke="rgba(41, 66, 56, 1)" stroke-width="1.5"></path><path d="M-90.59 511.84L-90.59 511.84" stroke="rgba(41, 66, 56, 1)" stroke-width="1.5"></path><path d="M-90.59 511.84L-92.35 661.66" stroke="rgba(41, 66, 56, 1)" stroke-width="1.5"></path><path d="M-92.35 661.66L-92.35 661.66" stroke="rgba(41, 66, 56, 1)" stroke-width="1.5"></path><path d="M-92.35 661.66L76.42 556.75" stroke="rgba(41, 66, 56, 1)" stroke-width="1.5"></path><path d="M-92.35 661.66L108.2 685.39" stroke="rgba(41, 66, 56, 1)" stroke-width="1.5"></path><path d="M-92.35 661.66L-83.4 354.29" stroke="rgba(41, 66, 56, 1)" stroke-width="1.5"></path><path d="M-92.35 661.66L189.61 536.67" stroke="rgba(41, 66, 56, 1)" stroke-width="1.5"></path><path d="M65.7 359.24L65.7 359.24" stroke="rgba(41, 66, 56, 1)" stroke-width="1.5"></path><path d="M65.7 359.24L206.63 359.59" stroke="rgba(41, 66, 56, 1)" stroke-width="1.5"></path><path d="M65.7 359.24L76.42 556.75" stroke="rgba(41, 66, 56, 1)" stroke-width="1.5"></path><path d="M65.7 359.24L189.61 536.67" stroke="rgba(41, 66, 56, 1)" stroke-width="1.5"></path><path d="M76.42 556.75L76.42 556.75" stroke="rgba(41, 66, 56, 1)" stroke-width="1.5"></path><path d="M76.42 556.75L189.61 536.67" stroke="rgba(41, 66, 56, 1)" stroke-width="1.5"></path><path d="M76.42 556.75L108.2 685.39" stroke="rgba(41, 66, 56, 1)" stroke-width="1.5"></path><path d="M108.2 685.39L108.2 685.39" stroke="rgba(41, 66, 56, 1)" stroke-width="1.5"></path><path d="M108.2 685.39L229.16 639.91" stroke="rgba(41, 66, 56, 1)" stroke-width="1.5"></path><path d="M108.2 685.39L189.61 536.67" stroke="rgba(41, 66, 56, 1)" stroke-width="1.5"></path><path d="M108.2 685.39L-90.59 511.84" stroke="rgba(41, 66, 56, 1)" stroke-width="1.5"></path><path d="M206.63 359.59L206.63 359.59" stroke="rgba(41, 66, 56, 1)" stroke-width="1.5"></path><path d="M206.63 359.59L375.43 365.94" stroke="rgba(41, 66, 56, 1)" stroke-width="1.5"></path><path d="M206.63 359.59L189.61 536.67" stroke="rgba(41, 66, 56, 1)" stroke-width="1.5"></path><path d="M206.63 359.59L338.95 538.06" stroke="rgba(41, 66, 56, 1)" stroke-width="1.5"></path><path d="M206.63 359.59L76.42 556.75" stroke="rgba(41, 66, 56, 1)" stroke-width="1.5"></path><path d="M206.63 359.59L229.16 639.91" stroke="rgba(41, 66, 56, 1)" stroke-width="1.5"></path><path d="M189.61 536.67L189.61 536.67" stroke="rgba(41, 66, 56, 1)" stroke-width="1.5"></path><path d="M189.61 536.67L229.16 639.91" stroke="rgba(41, 66, 56, 1)" stroke-width="1.5"></path><path d="M189.61 536.67L338.95 538.06" stroke="rgba(41, 66, 56, 1)" stroke-width="1.5"></path><path d="M229.16 639.91L229.16 639.91" stroke="rgba(41, 66, 56, 1)" stroke-width="1.5"></path><path d="M375.43 365.94L375.43 365.94" stroke="rgba(41, 66, 56, 1)" stroke-width="1.5"></path><path d="M375.43 365.94L525.75 408.16" stroke="rgba(41, 66, 56, 1)" stroke-width="1.5"></path><path d="M375.43 365.94L338.95 538.06" stroke="rgba(41, 66, 56, 1)" stroke-width="1.5"></path><path d="M375.43 365.94L507.06 552.27" stroke="rgba(41, 66, 56, 1)" stroke-width="1.5"></path><path d="M338.95 538.06L338.95 538.06" stroke="rgba(41, 66, 56, 1)" stroke-width="1.5"></path><path d="M338.95 538.06L390.47 645.08" stroke="rgba(41, 66, 56, 1)" stroke-width="1.5"></path><path d="M338.95 538.06L229.16 639.91" stroke="rgba(41, 66, 56, 1)" stroke-width="1.5"></path><path d="M338.95 538.06L507.06 552.27" stroke="rgba(41, 66, 56, 1)" stroke-width="1.5"></path><path d="M338.95 538.06L496.78 658.65" stroke="rgba(41, 66, 56, 1)" stroke-width="1.5"></path><path d="M390.47 645.08L390.47 645.08" stroke="rgba(41, 66, 56, 1)" stroke-width="1.5"></path><path d="M390.47 645.08L496.78 658.65" stroke="rgba(41, 66, 56, 1)" stroke-width="1.5"></path><path d="M525.75 408.16L525.75 408.16" stroke="rgba(41, 66, 56, 1)" stroke-width="1.5"></path><path d="M525.75 408.16L507.06 552.27" stroke="rgba(41, 66, 56, 1)" stroke-width="1.5"></path><path d="M525.75 408.16L686.72 340.32" stroke="rgba(41, 66, 56, 1)" stroke-width="1.5"></path><path d="M507.06 552.27L507.06 552.27" stroke="rgba(41, 66, 56, 1)" stroke-width="1.5"></path><path d="M507.06 552.27L496.78 658.65" stroke="rgba(41, 66, 56, 1)" stroke-width="1.5"></path><path d="M496.78 658.65L496.78 658.65" stroke="rgba(41, 66, 56, 1)" stroke-width="1.5"></path><path d="M496.78 658.65L645.28 684.66" stroke="rgba(41, 66, 56, 1)" stroke-width="1.5"></path><path d="M697.63 222.33L697.63 222.33" stroke="rgba(41, 66, 56, 1)" stroke-width="1.5"></path><path d="M697.63 222.33L798.23 206.71" stroke="rgba(41, 66, 56, 1)" stroke-width="1.5"></path><path d="M697.63 222.33L686.72 340.32" stroke="rgba(41, 66, 56, 1)" stroke-width="1.5"></path><path d="M697.63 222.33L838.87 346.09" stroke="rgba(41, 66, 56, 1)" stroke-width="1.5"></path><path d="M686.72 340.32L686.72 340.32" stroke="rgba(41, 66, 56, 1)" stroke-width="1.5"></path><path d="M697.27 499L697.27 499" stroke="rgba(41, 66, 56, 1)" stroke-width="1.5"></path><path d="M697.27 499L838.12 524.1" stroke="rgba(41, 66, 56, 1)" stroke-width="1.5"></path><path d="M697.27 499L686.72 340.32" stroke="rgba(41, 66, 56, 1)" stroke-width="1.5"></path><path d="M697.27 499L645.28 684.66" stroke="rgba(41, 66, 56, 1)" stroke-width="1.5"></path><path d="M645.28 684.66L645.28 684.66" stroke="rgba(41, 66, 56, 1)" stroke-width="1.5"></path><path d="M645.28 684.66L802.46 684.52" stroke="rgba(41, 66, 56, 1)" stroke-width="1.5"></path><path d="M645.28 684.66L507.06 552.27" stroke="rgba(41, 66, 56, 1)" stroke-width="1.5"></path><path d="M645.28 684.66L838.12 524.1" stroke="rgba(41, 66, 56, 1)" stroke-width="1.5"></path><path d="M645.28 684.66L390.47 645.08" stroke="rgba(41, 66, 56, 1)" stroke-width="1.5"></path><path d="M798.23 206.71L798.23 206.71" stroke="rgba(41, 66, 56, 1)" stroke-width="1.5"></path><path d="M798.23 206.71L838.87 346.09" stroke="rgba(41, 66, 56, 1)" stroke-width="1.5"></path><path d="M798.23 206.71L957.73 233.81" stroke="rgba(41, 66, 56, 1)" stroke-width="1.5"></path><path d="M838.87 346.09L838.87 346.09" stroke="rgba(41, 66, 56, 1)" stroke-width="1.5"></path><path d="M838.87 346.09L956.02 393.74" stroke="rgba(41, 66, 56, 1)" stroke-width="1.5"></path><path d="M838.87 346.09L686.72 340.32" stroke="rgba(41, 66, 56, 1)" stroke-width="1.5"></path><path d="M838.87 346.09L957.73 233.81" stroke="rgba(41, 66, 56, 1)" stroke-width="1.5"></path><path d="M838.87 346.09L838.12 524.1" stroke="rgba(41, 66, 56, 1)" stroke-width="1.5"></path><path d="M838.12 524.1L838.12 524.1" stroke="rgba(41, 66, 56, 1)" stroke-width="1.5"></path><path d="M838.12 524.1L802.46 684.52" stroke="rgba(41, 66, 56, 1)" stroke-width="1.5"></path><path d="M838.12 524.1L1009.7 544.03" stroke="rgba(41, 66, 56, 1)" stroke-width="1.5"></path><path d="M838.12 524.1L956.02 393.74" stroke="rgba(41, 66, 56, 1)" stroke-width="1.5"></path><path d="M802.46 684.52L802.46 684.52" stroke="rgba(41, 66, 56, 1)" stroke-width="1.5"></path><path d="M802.46 684.52L1000.24 706.19" stroke="rgba(41, 66, 56, 1)" stroke-width="1.5"></path><path d="M802.46 684.52L697.27 499" stroke="rgba(41, 66, 56, 1)" stroke-width="1.5"></path><path d="M943.13 -77.28L943.13 -77.28" stroke="rgba(41, 66, 56, 1)" stroke-width="1.5"></path><path d="M943.13 -77.28L992.96 73.78" stroke="rgba(41, 66, 56, 1)" stroke-width="1.5"></path><path d="M943.13 -77.28L1134.91 -85.95" stroke="rgba(41, 66, 56, 1)" stroke-width="1.5"></path><path d="M943.13 -77.28L1128.23 98.54" stroke="rgba(41, 66, 56, 1)" stroke-width="1.5"></path><path d="M943.13 -77.28L1245.77 -84.8" stroke="rgba(41, 66, 56, 1)" stroke-width="1.5"></path><path d="M992.96 73.78L992.96 73.78" stroke="rgba(41, 66, 56, 1)" stroke-width="1.5"></path><path d="M992.96 73.78L1128.23 98.54" stroke="rgba(41, 66, 56, 1)" stroke-width="1.5"></path><path d="M992.96 73.78L957.73 233.81" stroke="rgba(41, 66, 56, 1)" stroke-width="1.5"></path><path d="M992.96 73.78L1097.87 230.66" stroke="rgba(41, 66, 56, 1)" stroke-width="1.5"></path><path d="M992.96 73.78L1134.91 -85.95" stroke="rgba(41, 66, 56, 1)" stroke-width="1.5"></path><path d="M957.73 233.81L957.73 233.81" stroke="rgba(41, 66, 56, 1)" stroke-width="1.5"></path><path d="M957.73 233.81L1097.87 230.66" stroke="rgba(41, 66, 56, 1)" stroke-width="1.5"></path><path d="M957.73 233.81L956.02 393.74" stroke="rgba(41, 66, 56, 1)" stroke-width="1.5"></path><path d="M956.02 393.74L956.02 393.74" stroke="rgba(41, 66, 56, 1)" stroke-width="1.5"></path><path d="M956.02 393.74L1009.7 544.03" stroke="rgba(41, 66, 56, 1)" stroke-width="1.5"></path><path d="M1009.7 544.03L1009.7 544.03" stroke="rgba(41, 66, 56, 1)" stroke-width="1.5"></path><path d="M1009.7 544.03L1109.76 509.16" stroke="rgba(41, 66, 56, 1)" stroke-width="1.5"></path><path d="M1000.24 706.19L1000.24 706.19" stroke="rgba(41, 66, 56, 1)" stroke-width="1.5"></path><path d="M1000.24 706.19L1123.16 644.97" stroke="rgba(41, 66, 56, 1)" stroke-width="1.5"></path><path d="M1000.24 706.19L1009.7 544.03" stroke="rgba(41, 66, 56, 1)" stroke-width="1.5"></path><path d="M1000.24 706.19L1109.76 509.16" stroke="rgba(41, 66, 56, 1)" stroke-width="1.5"></path><path d="M1134.91 -85.95L1134.91 -85.95" stroke="rgba(41, 66, 56, 1)" stroke-width="1.5"></path><path d="M1134.91 -85.95L1245.77 -84.8" stroke="rgba(41, 66, 56, 1)" stroke-width="1.5"></path><path d="M1134.91 -85.95L1270.88 38.04" stroke="rgba(41, 66, 56, 1)" stroke-width="1.5"></path><path d="M1134.91 -85.95L1128.23 98.54" stroke="rgba(41, 66, 56, 1)" stroke-width="1.5"></path><path d="M1134.91 -85.95L1424.93 -72.92" stroke="rgba(41, 66, 56, 1)" stroke-width="1.5"></path><path d="M1128.23 98.54L1128.23 98.54" stroke="rgba(41, 66, 56, 1)" stroke-width="1.5"></path><path d="M1128.23 98.54L1097.87 230.66" stroke="rgba(41, 66, 56, 1)" stroke-width="1.5"></path><path d="M1128.23 98.54L1270.88 38.04" stroke="rgba(41, 66, 56, 1)" stroke-width="1.5"></path><path d="M1128.23 98.54L1258.32 218.96" stroke="rgba(41, 66, 56, 1)" stroke-width="1.5"></path><path d="M1128.23 98.54L957.73 233.81" stroke="rgba(41, 66, 56, 1)" stroke-width="1.5"></path><path d="M1097.87 230.66L1097.87 230.66" stroke="rgba(41, 66, 56, 1)" stroke-width="1.5"></path><path d="M1097.87 230.66L1258.32 218.96" stroke="rgba(41, 66, 56, 1)" stroke-width="1.5"></path><path d="M1109.76 509.16L1109.76 509.16" stroke="rgba(41, 66, 56, 1)" stroke-width="1.5"></path><path d="M1109.76 509.16L1123.16 644.97" stroke="rgba(41, 66, 56, 1)" stroke-width="1.5"></path><path d="M1123.16 644.97L1123.16 644.97" stroke="rgba(41, 66, 56, 1)" stroke-width="1.5"></path><path d="M1123.16 644.97L1009.7 544.03" stroke="rgba(41, 66, 56, 1)" stroke-width="1.5"></path><path d="M1245.77 -84.8L1245.77 -84.8" stroke="rgba(41, 66, 56, 1)" stroke-width="1.5"></path><path d="M1245.77 -84.8L1270.88 38.04" stroke="rgba(41, 66, 56, 1)" stroke-width="1.5"></path><path d="M1270.88 38.04L1270.88 38.04" stroke="rgba(41, 66, 56, 1)" stroke-width="1.5"></path><path d="M1270.88 38.04L1392.42 65.51" stroke="rgba(41, 66, 56, 1)" stroke-width="1.5"></path><path d="M1270.88 38.04L1258.32 218.96" stroke="rgba(41, 66, 56, 1)" stroke-width="1.5"></path><path d="M1270.88 38.04L1424.93 -72.92" stroke="rgba(41, 66, 56, 1)" stroke-width="1.5"></path><path d="M1258.32 218.96L1258.32 218.96" stroke="rgba(41, 66, 56, 1)" stroke-width="1.5"></path><path d="M1258.32 218.96L1435.63 198.2" stroke="rgba(41, 66, 56, 1)" stroke-width="1.5"></path><path d="M1258.32 218.96L1239.27 397.59" stroke="rgba(41, 66, 56, 1)" stroke-width="1.5"></path><path d="M1239.27 397.59L1239.27 397.59" stroke="rgba(41, 66, 56, 1)" stroke-width="1.5"></path><path d="M1239.27 397.59L1283.55 530.05" stroke="rgba(41, 66, 56, 1)" stroke-width="1.5"></path><path d="M1239.27 397.59L1109.76 509.16" stroke="rgba(41, 66, 56, 1)" stroke-width="1.5"></path><path d="M1239.27 397.59L1443.14 350.61" stroke="rgba(41, 66, 56, 1)" stroke-width="1.5"></path><path d="M1239.27 397.59L1097.87 230.66" stroke="rgba(41, 66, 56, 1)" stroke-width="1.5"></path><path d="M1283.55 530.05L1283.55 530.05" stroke="rgba(41, 66, 56, 1)" stroke-width="1.5"></path><path d="M1283.55 530.05L1405.97 545.3" stroke="rgba(41, 66, 56, 1)" stroke-width="1.5"></path><path d="M1424.93 -72.92L1424.93 -72.92" stroke="rgba(41, 66, 56, 1)" stroke-width="1.5"></path><path d="M1424.93 -72.92L1392.42 65.51" stroke="rgba(41, 66, 56, 1)" stroke-width="1.5"></path><path d="M1424.93 -72.92L1591.05 -104.96" stroke="rgba(41, 66, 56, 1)" stroke-width="1.5"></path><path d="M1424.93 -72.92L1245.77 -84.8" stroke="rgba(41, 66, 56, 1)" stroke-width="1.5"></path><path d="M1424.93 -72.92L1610.02 104.05" stroke="rgba(41, 66, 56, 1)" stroke-width="1.5"></path><path d="M1424.93 -72.92L1435.63 198.2" stroke="rgba(41, 66, 56, 1)" stroke-width="1.5"></path><path d="M1392.42 65.51L1392.42 65.51" stroke="rgba(41, 66, 56, 1)" stroke-width="1.5"></path><path d="M1392.42 65.51L1435.63 198.2" stroke="rgba(41, 66, 56, 1)" stroke-width="1.5"></path><path d="M1435.63 198.2L1435.63 198.2" stroke="rgba(41, 66, 56, 1)" stroke-width="1.5"></path><path d="M1435.63 198.2L1443.14 350.61" stroke="rgba(41, 66, 56, 1)" stroke-width="1.5"></path><path d="M1435.63 198.2L1609.37 258.21" stroke="rgba(41, 66, 56, 1)" stroke-width="1.5"></path><path d="M1435.63 198.2L1610.02 104.05" stroke="rgba(41, 66, 56, 1)" stroke-width="1.5"></path><path d="M1435.63 198.2L1570.77 379.67" stroke="rgba(41, 66, 56, 1)" stroke-width="1.5"></path><path d="M1443.14 350.61L1443.14 350.61" stroke="rgba(41, 66, 56, 1)" stroke-width="1.5"></path><path d="M1443.14 350.61L1570.77 379.67" stroke="rgba(41, 66, 56, 1)" stroke-width="1.5"></path><path d="M1443.14 350.61L1609.37 258.21" stroke="rgba(41, 66, 56, 1)" stroke-width="1.5"></path><path d="M1405.97 545.3L1405.97 545.3" stroke="rgba(41, 66, 56, 1)" stroke-width="1.5"></path><path d="M1405.97 545.3L1395.39 653.26" stroke="rgba(41, 66, 56, 1)" stroke-width="1.5"></path><path d="M1405.97 545.3L1594.63 515.01" stroke="rgba(41, 66, 56, 1)" stroke-width="1.5"></path><path d="M1395.39 653.26L1395.39 653.26" stroke="rgba(41, 66, 56, 1)" stroke-width="1.5"></path><path d="M1395.39 653.26L1283.55 530.05" stroke="rgba(41, 66, 56, 1)" stroke-width="1.5"></path><path d="M1395.39 653.26L1577.59 688.8" stroke="rgba(41, 66, 56, 1)" stroke-width="1.5"></path><path d="M1395.39 653.26L1594.63 515.01" stroke="rgba(41, 66, 56, 1)" stroke-width="1.5"></path><path d="M1395.39 653.26L1123.16 644.97" stroke="rgba(41, 66, 56, 1)" stroke-width="1.5"></path><path d="M1591.05 -104.96L1591.05 -104.96" stroke="rgba(41, 66, 56, 1)" stroke-width="1.5"></path><path d="M1591.05 -104.96L1610.02 104.05" stroke="rgba(41, 66, 56, 1)" stroke-width="1.5"></path><path d="M1591.05 -104.96L1392.42 65.51" stroke="rgba(41, 66, 56, 1)" stroke-width="1.5"></path><path d="M1591.05 -104.96L1435.63 198.2" stroke="rgba(41, 66, 56, 1)" stroke-width="1.5"></path><path d="M1591.05 -104.96L1245.77 -84.8" stroke="rgba(41, 66, 56, 1)" stroke-width="1.5"></path><path d="M1591.05 -104.96L1270.88 38.04" stroke="rgba(41, 66, 56, 1)" stroke-width="1.5"></path><path d="M1610.02 104.05L1610.02 104.05" stroke="rgba(41, 66, 56, 1)" stroke-width="1.5"></path><path d="M1610.02 104.05L1609.37 258.21" stroke="rgba(41, 66, 56, 1)" stroke-width="1.5"></path><path d="M1610.02 104.05L1392.42 65.51" stroke="rgba(41, 66, 56, 1)" stroke-width="1.5"></path><path d="M1609.37 258.21L1609.37 258.21" stroke="rgba(41, 66, 56, 1)" stroke-width="1.5"></path><path d="M1609.37 258.21L1570.77 379.67" stroke="rgba(41, 66, 56, 1)" stroke-width="1.5"></path><path d="M1570.77 379.67L1570.77 379.67" stroke="rgba(41, 66, 56, 1)" stroke-width="1.5"></path><path d="M1570.77 379.67L1594.63 515.01" stroke="rgba(41, 66, 56, 1)" stroke-width="1.5"></path><path d="M1570.77 379.67L1405.97 545.3" stroke="rgba(41, 66, 56, 1)" stroke-width="1.5"></path><path d="M1594.63 515.01L1594.63 515.01" stroke="rgba(41, 66, 56, 1)" stroke-width="1.5"></path><path d="M1577.59 688.8L1577.59 688.8" stroke="rgba(41, 66, 56, 1)" stroke-width="1.5"></path><path d="M1577.59 688.8L1594.63 515.01" stroke="rgba(41, 66, 56, 1)" stroke-width="1.5"></path><path d="M1577.59 688.8L1405.97 545.3" stroke="rgba(41, 66, 56, 1)" stroke-width="1.5"></path><path d="M1577.59 688.8L1570.77 379.67" stroke="rgba(41, 66, 56, 1)" stroke-width="1.5"></path><circle r="5" cx="-83.4" cy="354.29" fill="rgba(41, 66, 56, 1)"></circle><circle r="5" cx="-90.59" cy="511.84" fill="rgba(41, 66, 56, 1)"></circle><circle r="5" cx="-92.35" cy="661.66" fill="rgba(41, 66, 56, 1)"></circle><circle r="5" cx="65.7" cy="359.24" fill="rgba(41, 66, 56, 1)"></circle><circle r="5" cx="76.42" cy="556.75" fill="rgba(41, 66, 56, 1)"></circle><circle r="5" cx="108.2" cy="685.39" fill="rgba(41, 66, 56, 1)"></circle><circle r="5" cx="206.63" cy="359.59" fill="rgba(41, 66, 56, 1)"></circle><circle r="5" cx="189.61" cy="536.67" fill="rgba(41, 66, 56, 1)"></circle><circle r="5" cx="229.16" cy="639.91" fill="rgba(41, 66, 56, 1)"></circle><circle r="5" cx="375.43" cy="365.94" fill="rgba(41, 66, 56, 1)"></circle><circle r="5" cx="338.95" cy="538.06" fill="rgba(41, 66, 56, 1)"></circle><circle r="5" cx="390.47" cy="645.08" fill="rgba(41, 66, 56, 1)"></circle><circle r="5" cx="525.75" cy="408.16" fill="rgba(41, 66, 56, 1)"></circle><circle r="5" cx="507.06" cy="552.27" fill="rgba(41, 66, 56, 1)"></circle><circle r="5" cx="496.78" cy="658.65" fill="rgba(41, 66, 56, 1)"></circle><circle r="5" cx="697.63" cy="222.33" fill="rgba(41, 66, 56, 1)"></circle><circle r="5" cx="686.72" cy="340.32" fill="rgba(41, 66, 56, 1)"></circle><circle r="5" cx="697.27" cy="499" fill="rgba(41, 66, 56, 1)"></circle><circle r="5" cx="645.28" cy="684.66" fill="rgba(41, 66, 56, 1)"></circle><circle r="5" cx="798.23" cy="206.71" fill="rgba(41, 66, 56, 1)"></circle><circle r="5" cx="838.87" cy="346.09" fill="rgba(41, 66, 56, 1)"></circle><circle r="5" cx="838.12" cy="524.1" fill="rgba(41, 66, 56, 1)"></circle><circle r="5" cx="802.46" cy="684.52" fill="rgba(41, 66, 56, 1)"></circle><circle r="5" cx="943.13" cy="-77.28" fill="rgba(41, 66, 56, 1)"></circle><circle r="5" cx="992.96" cy="73.78" fill="rgba(41, 66, 56, 1)"></circle><circle r="5" cx="957.73" cy="233.81" fill="rgba(41, 66, 56, 1)"></circle><circle r="5" cx="956.02" cy="393.74" fill="rgba(41, 66, 56, 1)"></circle><circle r="5" cx="1009.7" cy="544.03" fill="rgba(41, 66, 56, 1)"></circle><circle r="5" cx="1000.24" cy="706.19" fill="rgba(41, 66, 56, 1)"></circle><circle r="5" cx="1134.91" cy="-85.95" fill="rgba(41, 66, 56, 1)"></circle><circle r="5" cx="1128.23" cy="98.54" fill="rgba(41, 66, 56, 1)"></circle><circle r="5" cx="1097.87" cy="230.66" fill="rgba(41, 66, 56, 1)"></circle><circle r="5" cx="1109.76" cy="509.16" fill="rgba(41, 66, 56, 1)"></circle><circle r="5" cx="1123.16" cy="644.97" fill="rgba(41, 66, 56, 1)"></circle><circle r="5" cx="1245.77" cy="-84.8" fill="rgba(41, 66, 56, 1)"></circle><circle r="5" cx="1270.88" cy="38.04" fill="rgba(41, 66, 56, 1)"></circle><circle r="5" cx="1258.32" cy="218.96" fill="rgba(41, 66, 56, 1)"></circle><circle r="5" cx="1239.27" cy="397.59" fill="rgba(41, 66, 56, 1)"></circle><circle r="5" cx="1283.55" cy="530.05" fill="rgba(41, 66, 56, 1)"></circle><circle r="5" cx="1424.93" cy="-72.92" fill="rgba(41, 66, 56, 1)"></circle><circle r="5" cx="1392.42" cy="65.51" fill="rgba(41, 66, 56, 1)"></circle><circle r="5" cx="1435.63" cy="198.2" fill="rgba(41, 66, 56, 1)"></circle><circle r="5" cx="1443.14" cy="350.61" fill="rgba(41, 66, 56, 1)"></circle><circle r="5" cx="1405.97" cy="545.3" fill="rgba(41, 66, 56, 1)"></circle><circle r="5" cx="1395.39" cy="653.26" fill="rgba(41, 66, 56, 1)"></circle><circle r="5" cx="1591.05" cy="-104.96" fill="rgba(41, 66, 56, 1)"></circle><circle r="5" cx="1610.02" cy="104.05" fill="rgba(41, 66, 56, 1)"></circle><circle r="5" cx="1609.37" cy="258.21" fill="rgba(41, 66, 56, 1)"></circle><circle r="5" cx="1570.77" cy="379.67" fill="rgba(41, 66, 56, 1)"></circle><circle r="5" cx="1594.63" cy="515.01" fill="rgba(41, 66, 56, 1)"></circle><circle r="5" cx="1577.59" cy="688.8" fill="rgba(41, 66, 56, 1)"></circle><path d="M556.83 556.16L556.83 556.16" stroke="hsl(24.600000000000023, 91.4%, 70.9%)" stroke-width="1.5"></path><path d="M556.83 556.16L491.44 689.65" stroke="hsl(24.600000000000023, 91.4%, 70.9%)" stroke-width="1.5"></path><path d="M556.83 556.16L679.82 684.29" stroke="hsl(24.600000000000023, 91.4%, 70.9%)" stroke-width="1.5"></path><path d="M556.83 556.16L368.01 512.24" stroke="hsl(24.600000000000023, 91.4%, 70.9%)" stroke-width="1.5"></path><path d="M556.83 556.16L663.68 371.39" stroke="hsl(24.600000000000023, 91.4%, 70.9%)" stroke-width="1.5"></path><path d="M970.99 708.08L970.99 708.08" stroke="hsl(24.600000000000023, 91.4%, 70.9%)" stroke-width="1.5"></path><path d="M970.99 708.08L1130.88 698.94" stroke="hsl(24.600000000000023, 91.4%, 70.9%)" stroke-width="1.5"></path><path d="M970.99 708.08L789.09 668.68" stroke="hsl(24.600000000000023, 91.4%, 70.9%)" stroke-width="1.5"></path><path d="M1140 339.6L1140 339.6" stroke="hsl(24.600000000000023, 91.4%, 70.9%)" stroke-width="1.5"></path><path d="M1140 339.6L1143.01 227.16" stroke="hsl(24.600000000000023, 91.4%, 70.9%)" stroke-width="1.5"></path><path d="M1140 339.6L1255.89 386.6" stroke="hsl(24.600000000000023, 91.4%, 70.9%)" stroke-width="1.5"></path><path d="M1133.22 528.16L1133.22 528.16" stroke="hsl(24.600000000000023, 91.4%, 70.9%)" stroke-width="1.5"></path><path d="M1133.22 528.16L1269.13 558.22" stroke="hsl(24.600000000000023, 91.4%, 70.9%)" stroke-width="1.5"></path><path d="M1133.22 528.16L1130.88 698.94" stroke="hsl(24.600000000000023, 91.4%, 70.9%)" stroke-width="1.5"></path><path d="M1133.22 528.16L998.24 401.31" stroke="hsl(24.600000000000023, 91.4%, 70.9%)" stroke-width="1.5"></path><path d="M1133.22 528.16L1255.89 386.6" stroke="hsl(24.600000000000023, 91.4%, 70.9%)" stroke-width="1.5"></path><path d="M1133.22 528.16L1140 339.6" stroke="hsl(24.600000000000023, 91.4%, 70.9%)" stroke-width="1.5"></path><path d="M1290.89 666.72L1290.89 666.72" stroke="hsl(24.600000000000023, 91.4%, 70.9%)" stroke-width="1.5"></path><path d="M1290.89 666.72L1269.13 558.22" stroke="hsl(24.600000000000023, 91.4%, 70.9%)" stroke-width="1.5"></path><path d="M1290.89 666.72L1437.3 656.44" stroke="hsl(24.600000000000023, 91.4%, 70.9%)" stroke-width="1.5"></path><path d="M1290.89 666.72L1130.88 698.94" stroke="hsl(24.600000000000023, 91.4%, 70.9%)" stroke-width="1.5"></path><path d="M1403.61 -49.67L1403.61 -49.67" stroke="hsl(24.600000000000023, 91.4%, 70.9%)" stroke-width="1.5"></path><path d="M1403.61 -49.67L1457.05 57.67" stroke="hsl(24.600000000000023, 91.4%, 70.9%)" stroke-width="1.5"></path><path d="M1403.61 -49.67L1265.27 -97.04" stroke="hsl(24.600000000000023, 91.4%, 70.9%)" stroke-width="1.5"></path><path d="M1403.61 -49.67L1564.45 48.29" stroke="hsl(24.600000000000023, 91.4%, 70.9%)" stroke-width="1.5"></path><path d="M1605.2 355.67L1605.2 355.67" stroke="hsl(24.600000000000023, 91.4%, 70.9%)" stroke-width="1.5"></path><path d="M1605.2 355.67L1568.99 260.43" stroke="hsl(24.600000000000023, 91.4%, 70.9%)" stroke-width="1.5"></path><path d="M1605.2 355.67L1583.83 492.95" stroke="hsl(24.600000000000023, 91.4%, 70.9%)" stroke-width="1.5"></path><path d="M1605.2 355.67L1417.23 380.78" stroke="hsl(24.600000000000023, 91.4%, 70.9%)" stroke-width="1.5"></path><path d="M1605.2 355.67L1447.56 208.2" stroke="hsl(24.600000000000023, 91.4%, 70.9%)" stroke-width="1.5"></path><path d="M-97.04 504.41L-97.04 504.41" stroke="hsl(24.600000000000023, 91.4%, 70.9%)" stroke-width="1.5"></path><path d="M-97.04 504.41L47.23 531.14" stroke="hsl(24.600000000000023, 91.4%, 70.9%)" stroke-width="1.5"></path><path d="M-97.04 504.41L-77.76 651.08" stroke="hsl(24.600000000000023, 91.4%, 70.9%)" stroke-width="1.5"></path><path d="M-97.04 504.41L97.82 663.4" stroke="hsl(24.600000000000023, 91.4%, 70.9%)" stroke-width="1.5"></path><path d="M-97.04 504.41L219.91 529.33" stroke="hsl(24.600000000000023, 91.4%, 70.9%)" stroke-width="1.5"></path><path d="M-97.04 504.41L218.27 688.91" stroke="hsl(24.600000000000023, 91.4%, 70.9%)" stroke-width="1.5"></path><path d="M-97.04 504.41L368.01 512.24" stroke="hsl(24.600000000000023, 91.4%, 70.9%)" stroke-width="1.5"></path><path d="M-77.76 651.08L-77.76 651.08" stroke="hsl(24.600000000000023, 91.4%, 70.9%)" stroke-width="1.5"></path><path d="M-77.76 651.08L47.23 531.14" stroke="hsl(24.600000000000023, 91.4%, 70.9%)" stroke-width="1.5"></path><path d="M-77.76 651.08L97.82 663.4" stroke="hsl(24.600000000000023, 91.4%, 70.9%)" stroke-width="1.5"></path><path d="M47.23 531.14L47.23 531.14" stroke="hsl(24.600000000000023, 91.4%, 70.9%)" stroke-width="1.5"></path><path d="M47.23 531.14L97.82 663.4" stroke="hsl(24.600000000000023, 91.4%, 70.9%)" stroke-width="1.5"></path><path d="M47.23 531.14L219.91 529.33" stroke="hsl(24.600000000000023, 91.4%, 70.9%)" stroke-width="1.5"></path><path d="M97.82 663.4L97.82 663.4" stroke="hsl(24.600000000000023, 91.4%, 70.9%)" stroke-width="1.5"></path><path d="M97.82 663.4L218.27 688.91" stroke="hsl(24.600000000000023, 91.4%, 70.9%)" stroke-width="1.5"></path><path d="M219.91 529.33L219.91 529.33" stroke="hsl(24.600000000000023, 91.4%, 70.9%)" stroke-width="1.5"></path><path d="M219.91 529.33L368.01 512.24" stroke="hsl(24.600000000000023, 91.4%, 70.9%)" stroke-width="1.5"></path><path d="M219.91 529.33L218.27 688.91" stroke="hsl(24.600000000000023, 91.4%, 70.9%)" stroke-width="1.5"></path><path d="M219.91 529.33L97.82 663.4" stroke="hsl(24.600000000000023, 91.4%, 70.9%)" stroke-width="1.5"></path><path d="M219.91 529.33L491.44 689.65" stroke="hsl(24.600000000000023, 91.4%, 70.9%)" stroke-width="1.5"></path><path d="M218.27 688.91L218.27 688.91" stroke="hsl(24.600000000000023, 91.4%, 70.9%)" stroke-width="1.5"></path><path d="M218.27 688.91L368.01 512.24" stroke="hsl(24.600000000000023, 91.4%, 70.9%)" stroke-width="1.5"></path><path d="M218.27 688.91L47.23 531.14" stroke="hsl(24.600000000000023, 91.4%, 70.9%)" stroke-width="1.5"></path><path d="M218.27 688.91L491.44 689.65" stroke="hsl(24.600000000000023, 91.4%, 70.9%)" stroke-width="1.5"></path><path d="M218.27 688.91L-77.76 651.08" stroke="hsl(24.600000000000023, 91.4%, 70.9%)" stroke-width="1.5"></path><path d="M368.01 512.24L368.01 512.24" stroke="hsl(24.600000000000023, 91.4%, 70.9%)" stroke-width="1.5"></path><path d="M368.01 512.24L491.44 689.65" stroke="hsl(24.600000000000023, 91.4%, 70.9%)" stroke-width="1.5"></path><path d="M491.44 689.65L491.44 689.65" stroke="hsl(24.600000000000023, 91.4%, 70.9%)" stroke-width="1.5"></path><path d="M491.44 689.65L679.82 684.29" stroke="hsl(24.600000000000023, 91.4%, 70.9%)" stroke-width="1.5"></path><path d="M663.68 371.39L663.68 371.39" stroke="hsl(24.600000000000023, 91.4%, 70.9%)" stroke-width="1.5"></path><path d="M663.68 371.39L679.82 684.29" stroke="hsl(24.600000000000023, 91.4%, 70.9%)" stroke-width="1.5"></path><path d="M663.68 371.39L789.09 668.68" stroke="hsl(24.600000000000023, 91.4%, 70.9%)" stroke-width="1.5"></path><path d="M663.68 371.39L368.01 512.24" stroke="hsl(24.600000000000023, 91.4%, 70.9%)" stroke-width="1.5"></path><path d="M663.68 371.39L998.24 401.31" stroke="hsl(24.600000000000023, 91.4%, 70.9%)" stroke-width="1.5"></path><path d="M679.82 684.29L679.82 684.29" stroke="hsl(24.600000000000023, 91.4%, 70.9%)" stroke-width="1.5"></path><path d="M679.82 684.29L789.09 668.68" stroke="hsl(24.600000000000023, 91.4%, 70.9%)" stroke-width="1.5"></path><path d="M789.09 668.68L789.09 668.68" stroke="hsl(24.600000000000023, 91.4%, 70.9%)" stroke-width="1.5"></path><path d="M789.09 668.68L556.83 556.16" stroke="hsl(24.600000000000023, 91.4%, 70.9%)" stroke-width="1.5"></path><path d="M998.24 401.31L998.24 401.31" stroke="hsl(24.600000000000023, 91.4%, 70.9%)" stroke-width="1.5"></path><path d="M998.24 401.31L1140 339.6" stroke="hsl(24.600000000000023, 91.4%, 70.9%)" stroke-width="1.5"></path><path d="M998.24 401.31L1143.01 227.16" stroke="hsl(24.600000000000023, 91.4%, 70.9%)" stroke-width="1.5"></path><path d="M1154.26 -81.08L1154.26 -81.08" stroke="hsl(24.600000000000023, 91.4%, 70.9%)" stroke-width="1.5"></path><path d="M1154.26 -81.08L1265.27 -97.04" stroke="hsl(24.600000000000023, 91.4%, 70.9%)" stroke-width="1.5"></path><path d="M1154.26 -81.08L1238.59 62.92" stroke="hsl(24.600000000000023, 91.4%, 70.9%)" stroke-width="1.5"></path><path d="M1143.01 227.16L1143.01 227.16" stroke="hsl(24.600000000000023, 91.4%, 70.9%)" stroke-width="1.5"></path><path d="M1143.01 227.16L1238.59 62.92" stroke="hsl(24.600000000000023, 91.4%, 70.9%)" stroke-width="1.5"></path><path d="M1143.01 227.16L1255.89 386.6" stroke="hsl(24.600000000000023, 91.4%, 70.9%)" stroke-width="1.5"></path><path d="M1130.88 698.94L1130.88 698.94" stroke="hsl(24.600000000000023, 91.4%, 70.9%)" stroke-width="1.5"></path><path d="M1130.88 698.94L1269.13 558.22" stroke="hsl(24.600000000000023, 91.4%, 70.9%)" stroke-width="1.5"></path><path d="M1265.27 -97.04L1265.27 -97.04" stroke="hsl(24.600000000000023, 91.4%, 70.9%)" stroke-width="1.5"></path><path d="M1265.27 -97.04L1238.59 62.92" stroke="hsl(24.600000000000023, 91.4%, 70.9%)" stroke-width="1.5"></path><path d="M1265.27 -97.04L1457.05 57.67" stroke="hsl(24.600000000000023, 91.4%, 70.9%)" stroke-width="1.5"></path><path d="M1238.59 62.92L1238.59 62.92" stroke="hsl(24.600000000000023, 91.4%, 70.9%)" stroke-width="1.5"></path><path d="M1238.59 62.92L1403.61 -49.67" stroke="hsl(24.600000000000023, 91.4%, 70.9%)" stroke-width="1.5"></path><path d="M1238.59 62.92L1457.05 57.67" stroke="hsl(24.600000000000023, 91.4%, 70.9%)" stroke-width="1.5"></path><path d="M1238.59 62.92L1447.56 208.2" stroke="hsl(24.600000000000023, 91.4%, 70.9%)" stroke-width="1.5"></path><path d="M1255.89 386.6L1255.89 386.6" stroke="hsl(24.600000000000023, 91.4%, 70.9%)" stroke-width="1.5"></path><path d="M1255.89 386.6L1417.23 380.78" stroke="hsl(24.600000000000023, 91.4%, 70.9%)" stroke-width="1.5"></path><path d="M1255.89 386.6L1269.13 558.22" stroke="hsl(24.600000000000023, 91.4%, 70.9%)" stroke-width="1.5"></path><path d="M1269.13 558.22L1269.13 558.22" stroke="hsl(24.600000000000023, 91.4%, 70.9%)" stroke-width="1.5"></path><path d="M1457.05 57.67L1457.05 57.67" stroke="hsl(24.600000000000023, 91.4%, 70.9%)" stroke-width="1.5"></path><path d="M1457.05 57.67L1564.45 48.29" stroke="hsl(24.600000000000023, 91.4%, 70.9%)" stroke-width="1.5"></path><path d="M1447.56 208.2L1447.56 208.2" stroke="hsl(24.600000000000023, 91.4%, 70.9%)" stroke-width="1.5"></path><path d="M1447.56 208.2L1568.99 260.43" stroke="hsl(24.600000000000023, 91.4%, 70.9%)" stroke-width="1.5"></path><path d="M1447.56 208.2L1457.05 57.67" stroke="hsl(24.600000000000023, 91.4%, 70.9%)" stroke-width="1.5"></path><path d="M1417.23 380.78L1417.23 380.78" stroke="hsl(24.600000000000023, 91.4%, 70.9%)" stroke-width="1.5"></path><path d="M1417.23 380.78L1442.46 547.06" stroke="hsl(24.600000000000023, 91.4%, 70.9%)" stroke-width="1.5"></path><path d="M1417.23 380.78L1447.56 208.2" stroke="hsl(24.600000000000023, 91.4%, 70.9%)" stroke-width="1.5"></path><path d="M1417.23 380.78L1568.99 260.43" stroke="hsl(24.600000000000023, 91.4%, 70.9%)" stroke-width="1.5"></path><path d="M1442.46 547.06L1442.46 547.06" stroke="hsl(24.600000000000023, 91.4%, 70.9%)" stroke-width="1.5"></path><path d="M1442.46 547.06L1437.3 656.44" stroke="hsl(24.600000000000023, 91.4%, 70.9%)" stroke-width="1.5"></path><path d="M1442.46 547.06L1583.83 492.95" stroke="hsl(24.600000000000023, 91.4%, 70.9%)" stroke-width="1.5"></path><path d="M1442.46 547.06L1544.45 672.19" stroke="hsl(24.600000000000023, 91.4%, 70.9%)" stroke-width="1.5"></path><path d="M1437.3 656.44L1437.3 656.44" stroke="hsl(24.600000000000023, 91.4%, 70.9%)" stroke-width="1.5"></path><path d="M1437.3 656.44L1544.45 672.19" stroke="hsl(24.600000000000023, 91.4%, 70.9%)" stroke-width="1.5"></path><path d="M1564.45 48.29L1564.45 48.29" stroke="hsl(24.600000000000023, 91.4%, 70.9%)" stroke-width="1.5"></path><path d="M1568.99 260.43L1568.99 260.43" stroke="hsl(24.600000000000023, 91.4%, 70.9%)" stroke-width="1.5"></path><path d="M1568.99 260.43L1564.45 48.29" stroke="hsl(24.600000000000023, 91.4%, 70.9%)" stroke-width="1.5"></path><path d="M1568.99 260.43L1457.05 57.67" stroke="hsl(24.600000000000023, 91.4%, 70.9%)" stroke-width="1.5"></path><path d="M1568.99 260.43L1583.83 492.95" stroke="hsl(24.600000000000023, 91.4%, 70.9%)" stroke-width="1.5"></path><path d="M1583.83 492.95L1583.83 492.95" stroke="hsl(24.600000000000023, 91.4%, 70.9%)" stroke-width="1.5"></path><path d="M1544.45 672.19L1544.45 672.19" stroke="hsl(24.600000000000023, 91.4%, 70.9%)" stroke-width="1.5"></path><path d="M1544.45 672.19L1583.83 492.95" stroke="hsl(24.600000000000023, 91.4%, 70.9%)" stroke-width="1.5"></path><path d="M1544.45 672.19L1290.89 666.72" stroke="hsl(24.600000000000023, 91.4%, 70.9%)" stroke-width="1.5"></path><path d="M1544.45 672.19L1269.13 558.22" stroke="hsl(24.600000000000023, 91.4%, 70.9%)" stroke-width="1.5"></path><path d="M1544.45 672.19L1417.23 380.78" stroke="hsl(24.600000000000023, 91.4%, 70.9%)" stroke-width="1.5"></path><circle r="25" cx="556.83" cy="556.16" fill="url(&quot;#SvgjsRadialGradient1063&quot;)"></circle><circle r="25" cx="970.99" cy="708.08" fill="url(&quot;#SvgjsRadialGradient1063&quot;)"></circle><circle r="25" cx="1140" cy="339.6" fill="url(&quot;#SvgjsRadialGradient1063&quot;)"></circle><circle r="25" cx="1133.22" cy="528.16" fill="url(&quot;#SvgjsRadialGradient1063&quot;)"></circle><circle r="25" cx="1290.89" cy="666.72" fill="url(&quot;#SvgjsRadialGradient1063&quot;)"></circle><circle r="25" cx="1403.61" cy="-49.67" fill="url(&quot;#SvgjsRadialGradient1063&quot;)"></circle><circle r="25" cx="1605.2" cy="355.67" fill="url(&quot;#SvgjsRadialGradient1063&quot;)"></circle><circle r="5" cx="-97.04" cy="504.41" fill="#fabc90"></circle><circle r="5" cx="-77.76" cy="651.08" fill="#fabc90"></circle><circle r="5" cx="47.23" cy="531.14" fill="#fabc90"></circle><circle r="5" cx="97.82" cy="663.4" fill="#fabc90"></circle><circle r="5" cx="219.91" cy="529.33" fill="#fabc90"></circle><circle r="5" cx="218.27" cy="688.91" fill="#fabc90"></circle><circle r="5" cx="368.01" cy="512.24" fill="#fabc90"></circle><circle r="5" cx="491.44" cy="689.65" fill="#fabc90"></circle><circle r="5" cx="663.68" cy="371.39" fill="#fabc90"></circle><circle r="5" cx="679.82" cy="684.29" fill="#fabc90"></circle><circle r="5" cx="789.09" cy="668.68" fill="#fabc90"></circle><circle r="5" cx="998.24" cy="401.31" fill="#fabc90"></circle><circle r="5" cx="1154.26" cy="-81.08" fill="#fabc90"></circle><circle r="5" cx="1143.01" cy="227.16" fill="#fabc90"></circle><circle r="5" cx="1130.88" cy="698.94" fill="#fabc90"></circle><circle r="5" cx="1265.27" cy="-97.04" fill="#fabc90"></circle><circle r="5" cx="1238.59" cy="62.92" fill="#fabc90"></circle><circle r="5" cx="1255.89" cy="386.6" fill="#fabc90"></circle><circle r="5" cx="1269.13" cy="558.22" fill="#fabc90"></circle><circle r="5" cx="1457.05" cy="57.67" fill="#fabc90"></circle><circle r="5" cx="1447.56" cy="208.2" fill="#fabc90"></circle><circle r="5" cx="1417.23" cy="380.78" fill="#fabc90"></circle><circle r="5" cx="1442.46" cy="547.06" fill="#fabc90"></circle><circle r="5" cx="1437.3" cy="656.44" fill="#fabc90"></circle><circle r="5" cx="1564.45" cy="48.29" fill="#fabc90"></circle><circle r="5" cx="1568.99" cy="260.43" fill="#fabc90"></circle><circle r="5" cx="1583.83" cy="492.95" fill="#fabc90"></circle><circle r="5" cx="1544.45" cy="672.19" fill="#fabc90"></circle></g><defs><mask id="SvgjsMask1062"><rect width="1440" height="560" fill="#ffffff"></rect></mask><radialGradient id="SvgjsRadialGradient1063"><stop stop-color="#ffffff" offset="0.1"></stop><stop stop-color="rgba(245, 120, 33, 1)" offset="0.2"></stop><stop stop-color="rgba(245, 120, 33, 0)" offset="1"></stop></radialGradient></defs></svg>